# xmcd CD database file
#
# Track frame offsets:
#	150
#	16805
#	30884
#	41731
#	58467
#	77722
#	101158
#	121488
#	142627
#	167556
#
# Disc length: 2569 seconds
#
# Revision: 6
# Processed by: cddbd v1.5.2PL0 Copyright (c) Steve Scherf et al.
# Submitted via: CDex 1.70beta2
#
DISCID=780a070a
DTITLE=矢野顕子 - ホントのきもち
DYEAR=2004
DGENRE=Song
TTITLE0=行かないで
TTITLE1=NYC
TTITLE2=真っ赤なビー玉
TTITLE3=House of Desire (Burnin' Down)
TTITLE4=おいてくよ
TTITLE5=Night Train Home acoustic version
TTITLE6=Too Good To Be True
TTITLE7=Our Lives
TTITLE8=Nobuko
TTITLE9=Night Train Home
EXTD=YEAR: 2004
EXTT0=
EXTT1=
EXTT2=
EXTT3=
EXTT4=
EXTT5=
EXTT6=
EXTT7=
EXTT8=
EXTT9=
PLAYORDER=
